<svg width="65" height="65" viewBox="0 0 65 65" fill="none" xmlns="http://www.w3.org/2000/svg">
<circle cx="32.5" cy="32.5" r="32.5" fill="white"/>
<g clip-path="url(#clip0_270_249)">
<path d="M21.406 27.2383H13.2207V29.5622H21.406C22.0467 29.5622 22.5679 30.0834 22.5679 30.7241C22.5679 31.3648 22.0467 31.8861 21.406 31.8861H16.7065C14.7844 31.8861 13.2207 33.4498 13.2207 35.3719V38.8577H15.5446V35.3719C15.5446 34.7312 16.0658 34.2099 16.7065 34.2099H21.406C23.3281 34.2099 24.8918 32.6462 24.8918 30.7241C24.8918 28.802 23.3281 27.2383 21.406 27.2383Z" fill="#DC7000"/>
<path d="M33.6328 27.2383C31.7107 27.2383 30.147 28.802 30.147 30.7241V35.3719C30.147 36.0126 29.6257 36.5338 28.985 36.5338H23.7305V38.8577H28.985C30.9071 38.8577 32.4708 37.294 32.4708 35.3719V30.7241C32.4708 30.0834 32.9921 29.5622 33.6328 29.5622H38.8873V27.2383H33.6328Z" fill="#DC7000"/>
<path d="M50.5575 34.2098V29.5622C50.5575 28.2808 49.515 27.2383 48.2336 27.2383C47.7935 27.2383 47.3647 27.3622 46.9935 27.5966L39.6346 32.2444C38.9559 32.673 38.5508 33.4077 38.5508 34.2099C38.5508 35.4913 39.5933 36.5338 40.8747 36.5338H48.2336V38.8577H50.5575V36.5338H52.8814V34.2099L50.5575 34.2098ZM48.2336 34.2097L40.8755 34.2092L48.2336 29.5622V34.2097Z" fill="#DC7000"/>
</g>
<defs>
<clipPath id="clip0_270_249">
<rect width="39.661" height="39.661" fill="white" transform="translate(13.2207 13.2188)"/>
</clipPath>
</defs>
</svg>
