<svg width="65" height="65" viewBox="0 0 65 65" fill="none" xmlns="http://www.w3.org/2000/svg">
<circle cx="32.5" cy="32.5" r="32.5" fill="white"/>
<g clip-path="url(#clip0_270_282)">
<path d="M45.7203 18.1797H20.3813C18.2528 18.1821 16.5278 19.9071 16.5254 22.0356V44.0695C16.5278 46.1981 18.2528 47.923 20.3813 47.9255H45.7203C47.8489 47.923 49.5738 46.1981 49.5762 44.0695V22.0356C49.5738 19.9071 47.8489 18.1821 45.7203 18.1797ZM48.4745 44.0695C48.4727 45.5899 47.2407 46.8219 45.7203 46.8238H20.3813C18.861 46.8219 17.6289 45.5899 17.6271 44.0695V22.0356C17.6289 20.5153 18.861 19.2832 20.3813 19.2814H45.7203C47.2407 19.2832 48.4727 20.5153 48.4745 22.0356V44.0695Z" fill="#DC7000"/>
<path d="M45.72 22.5859H20.3811C19.4684 22.5859 18.7285 23.3258 18.7285 24.2385V44.069C18.7285 44.9817 19.4684 45.7215 20.3811 45.7215H45.72C46.6327 45.7215 47.3726 44.9817 47.3726 44.069V24.2385C47.3726 23.3258 46.6327 22.5859 45.72 22.5859ZM33.0505 33.528L27.0513 30.2978L33.0505 27.0676L39.0498 30.2978L33.0505 33.528ZM39.6607 31.2199V37.6792L33.6014 40.9435V34.4842L39.6607 31.2199ZM32.4997 34.4842V40.9435L26.4404 37.6792V31.2199L32.4997 34.4842ZM19.8302 24.2385C19.8302 23.9343 20.0768 23.6876 20.3811 23.6876H32.4997V26.1114L25.6284 29.8131C25.6213 29.8169 25.613 29.8186 25.6058 29.823C25.4393 29.923 25.3378 30.1035 25.3387 30.2978V34.915L19.8302 37.6692V24.2385ZM46.2709 44.069C46.2709 44.3732 46.0243 44.6198 45.72 44.6198H20.3811C20.0768 44.6198 19.8302 44.3732 19.8302 44.069V38.9009L25.3387 36.1467V38.0097C25.3388 38.2122 25.4501 38.3984 25.6284 38.4944L32.7894 42.3503C32.9525 42.4381 33.1486 42.4381 33.3117 42.3503L40.4727 38.4944C40.651 38.3984 40.7623 38.2122 40.7624 38.0097V36.1467L46.2709 38.9009V44.069ZM46.2709 37.6692L40.7624 34.915V30.2978C40.7623 30.104 40.6605 29.9246 40.4942 29.8252C40.487 29.8208 40.4787 29.8191 40.4716 29.8153L33.6014 26.1114V23.6876H45.72C46.0243 23.6876 46.2709 23.9343 46.2709 24.2385V37.6692Z" fill="#DC7000"/>
<path d="M19.8301 21.4845C20.1344 21.4845 20.381 21.2379 20.381 20.9337C20.381 20.6294 20.1344 20.3828 19.8301 20.3828C19.5259 20.3828 19.2793 20.6294 19.2793 20.9337C19.2793 21.2379 19.5259 21.4845 19.8301 21.4845Z" fill="#DC7000"/>
<path d="M22.0333 21.4845C22.3375 21.4845 22.5841 21.2379 22.5841 20.9337C22.5841 20.6294 22.3375 20.3828 22.0333 20.3828C21.729 20.3828 21.4824 20.6294 21.4824 20.9337C21.4824 21.2379 21.729 21.4845 22.0333 21.4845Z" fill="#DC7000"/>
<path d="M24.2364 21.4845C24.5406 21.4845 24.7872 21.2379 24.7872 20.9337C24.7872 20.6294 24.5406 20.3828 24.2364 20.3828C23.9322 20.3828 23.6855 20.6294 23.6855 20.9337C23.6855 21.2379 23.9322 21.4845 24.2364 21.4845Z" fill="#DC7000"/>
<path d="M38.0079 21.4845H45.7197C46.024 21.4845 46.2706 21.2379 46.2706 20.9337C46.2706 20.6294 46.024 20.3828 45.7197 20.3828H38.0079C37.7037 20.3828 37.457 20.6294 37.457 20.9337C37.457 21.2379 37.7037 21.4845 38.0079 21.4845Z" fill="#DC7000"/>
</g>
<defs>
<clipPath id="clip0_270_282">
<rect width="33.0508" height="33.0508" fill="white" transform="translate(16.5254 16.5273)"/>
</clipPath>
</defs>
</svg>
