<svg width="65" height="65" viewBox="0 0 65 65" fill="none" xmlns="http://www.w3.org/2000/svg">
<circle cx="32.5" cy="32.5" r="32.5" fill="white"/>
<g clip-path="url(#clip0_0_1)">
<path d="M38.7444 17.6289H26.2561C25.0524 17.6289 24.0723 18.609 24.0723 19.8127V45.1903C24.0723 46.3945 25.0524 47.3747 26.2561 47.3747H38.7439C39.9481 47.3747 40.9282 46.3945 40.9282 45.1908V19.8127C40.9282 18.609 39.9481 17.6289 38.7444 17.6289ZM25.0638 21.595H39.9367V40.434H25.0638V21.595ZM26.2561 18.6204H38.7439C39.4017 18.6204 39.9367 19.1554 39.9367 19.8127V20.6035H25.0638V19.8127C25.0638 19.1554 25.5987 18.6204 26.2561 18.6204ZM38.7444 46.3831H26.2561C25.5987 46.3831 25.0638 45.8482 25.0638 45.1908V41.4255H39.9367V45.1908C39.9367 45.8482 39.4017 46.3831 38.7444 46.3831Z" fill="#DC7000"/>
<path d="M32.4987 41.9219C31.405 41.9219 30.5156 42.8113 30.5156 43.9049C30.5156 44.9986 31.405 45.888 32.4987 45.888C33.5923 45.888 34.4817 44.9986 34.4817 43.9049C34.4817 42.8113 33.5923 41.9219 32.4987 41.9219ZM32.4987 44.8965C31.9518 44.8965 31.5072 44.4518 31.5072 43.9049C31.5072 43.3581 31.9518 42.9134 32.4987 42.9134C33.0455 42.9134 33.4902 43.3581 33.4902 43.9049C33.4902 44.4518 33.0455 44.8965 32.4987 44.8965Z" fill="#DC7000"/>
<path d="M30.5172 20.1087H32.5003C32.7745 20.1087 32.9961 19.8871 32.9961 19.613C32.9961 19.3388 32.7745 19.1172 32.5003 19.1172H30.5172C30.2431 19.1172 30.0215 19.3388 30.0215 19.613C30.0215 19.8871 30.2431 20.1087 30.5172 20.1087Z" fill="#DC7000"/>
<path d="M33.986 20.1087H34.4818C34.7559 20.1087 34.9775 19.8871 34.9775 19.613C34.9775 19.3388 34.7559 19.1172 34.4818 19.1172H33.986C33.7118 19.1172 33.4902 19.3388 33.4902 19.613C33.4902 19.8871 33.7118 20.1087 33.986 20.1087Z" fill="#DC7000"/>
<path d="M45.6921 19.8954C45.4982 19.7015 45.1849 19.7015 44.9911 19.8954C44.7972 20.0892 44.7972 20.4025 44.9911 20.5964C46.8433 22.4486 46.8433 25.4623 44.9911 27.315C44.7972 27.5088 44.7972 27.8221 44.9911 28.016C45.0878 28.1127 45.2147 28.1612 45.3416 28.1612C45.4685 28.1612 45.5954 28.1127 45.6921 28.016C47.931 25.7776 47.931 22.1342 45.6921 19.8954Z" fill="#DC7000"/>
<path d="M43.6042 21.0243C43.4104 20.8304 43.097 20.8304 42.9032 21.0243C42.7094 21.2181 42.7094 21.5315 42.9032 21.7253C43.5165 22.3386 43.8541 23.1556 43.8541 24.0251C43.8541 24.8947 43.5165 25.7112 42.9032 26.3245C42.7094 26.5183 42.7094 26.8317 42.9032 27.0255C42.9999 27.1222 43.1268 27.1708 43.2537 27.1708C43.3806 27.1708 43.5075 27.1222 43.6042 27.0255C44.4049 26.2253 44.8456 25.1594 44.8456 24.0251C44.8456 22.8908 44.4054 21.8244 43.6042 21.0243Z" fill="#DC7000"/>
<path d="M20.0071 20.5964C20.201 20.4025 20.201 20.0892 20.0071 19.8954C19.8133 19.7015 19.4999 19.7015 19.3061 19.8954C17.0672 22.1342 17.0672 25.7771 19.3061 28.016C19.4028 28.1127 19.5297 28.1612 19.6566 28.1612C19.7835 28.1612 19.9104 28.1127 20.0071 28.016C20.201 27.8221 20.201 27.5088 20.0071 27.315C18.1544 25.4628 18.1544 22.4491 20.0071 20.5964Z" fill="#DC7000"/>
<path d="M22.0947 20.8837C21.9009 20.6898 21.5876 20.6898 21.3937 20.8837C20.5931 21.6838 20.1523 22.7497 20.1523 23.884C20.1523 25.0183 20.5931 26.0842 21.3937 26.8849C21.4904 26.9815 21.6173 27.0301 21.7442 27.0301C21.8712 27.0301 21.9981 26.9815 22.0947 26.8849C22.2886 26.691 22.2886 26.3777 22.0947 26.1839C21.4815 25.5706 21.1439 24.7536 21.1439 23.884C21.1439 23.0145 21.481 22.1979 22.0947 21.5847C22.2881 21.3913 22.2881 21.0775 22.0947 20.8837Z" fill="#DC7000"/>
</g>
<defs>
<clipPath id="clip0_0_1">
<rect width="29.7458" height="29.7458" fill="white" transform="translate(17.627 17.6289)"/>
</clipPath>
</defs>
</svg>
