<svg width="65" height="65" viewBox="0 0 65 65" fill="none" xmlns="http://www.w3.org/2000/svg">
<circle cx="32.5" cy="32.5" r="32.5" fill="white"/>
<g clip-path="url(#clip0_270_300)">
<path d="M47.3522 42.4474L46.6906 39.9783C46.6045 39.6568 46.274 39.4658 45.9527 39.5522C45.6312 39.6384 45.4405 39.9687 45.5266 40.2901L45.8163 41.3711L41.5885 38.9594V28.9362C41.5885 28.7206 41.4732 28.5213 41.2863 28.4139L32.5507 23.3915V18.6188L33.3297 19.3978C33.565 19.6331 33.9465 19.6331 34.1818 19.3978C34.4171 19.1625 34.4171 18.781 34.1818 18.5457L32.3742 16.7381C32.1387 16.5016 31.753 16.5064 31.5221 16.7381L29.7145 18.5457C29.4792 18.7809 29.4792 19.1625 29.7145 19.3978C29.9498 19.633 30.3313 19.633 30.5667 19.3978L31.3457 18.6188V23.3926L22.6687 28.4147C22.4826 28.5225 22.368 28.7212 22.368 28.9362V38.862L18.0807 41.2983L18.3708 40.2154C18.4569 39.8939 18.2662 39.5636 17.9447 39.4775C17.6232 39.3912 17.2929 39.5821 17.2068 39.9035L16.5453 42.3732C16.4615 42.686 16.6488 43.034 16.9894 43.1159L19.4405 43.7727C19.7645 43.8595 20.093 43.6655 20.1785 43.3467C20.2646 43.0253 20.0739 42.6949 19.7524 42.6088L18.7069 42.3286L22.9619 39.9107L31.6804 45.0446C31.867 45.1545 32.0988 45.1559 32.2871 45.0474L34.4973 43.7732C34.7856 43.607 34.8845 43.2386 34.7184 42.9503C34.5522 42.6621 34.1837 42.5631 33.8954 42.7293L31.9894 43.8281L24.1706 39.2239L31.9102 34.8259L39.799 39.3259L38.5921 40.0217C38.3038 40.1879 38.2049 40.5563 38.371 40.8446C38.5373 41.133 38.9058 41.2319 39.194 41.0657L41.0118 40.0177L45.1922 42.4024L44.1452 42.6829C43.8238 42.769 43.633 43.0994 43.7192 43.4209C43.8049 43.7407 44.1342 43.9335 44.4571 43.8469L46.8719 43.1999C47.2167 43.1391 47.4447 42.7925 47.3522 42.4474V42.4474ZM40.3834 38.2719L32.5506 33.8038V24.7815L40.3834 29.2848V38.2719ZM23.573 29.2837L31.3456 24.785V33.7605L23.573 38.1773V29.2837Z" fill="#DC7000"/>
<path d="M36.5264 42.4707C36.8591 42.4707 37.1289 42.2009 37.1289 41.8681C37.1289 41.5354 36.8591 41.2656 36.5264 41.2656C36.1936 41.2656 35.9238 41.5354 35.9238 41.8681C35.9238 42.2009 36.1936 42.4707 36.5264 42.4707Z" fill="#DC7000"/>
</g>
<defs>
<clipPath id="clip0_270_300">
<rect width="30.8475" height="30.8475" fill="white" transform="translate(16.5254 15.4219)"/>
</clipPath>
</defs>
</svg>
