<svg width="65" height="65" viewBox="0 0 65 65" fill="none" xmlns="http://www.w3.org/2000/svg">
<circle cx="32.5" cy="32.5" r="32.5" fill="white"/>
<g clip-path="url(#clip0_270_226)">
<path d="M19.1879 29.3065C19.3295 29.3073 19.4655 29.2517 19.566 29.152L21.6959 27.0221C21.9047 26.8133 21.9047 26.4748 21.6959 26.266C21.4871 26.0572 21.1486 26.0572 20.9398 26.266L18.8099 28.3959C18.709 28.4959 18.6523 28.632 18.6523 28.774C18.6523 28.916 18.709 29.0521 18.8099 29.152C18.9103 29.2517 19.0464 29.3073 19.1879 29.3065V29.3065Z" fill="#DC7000"/>
<path d="M19.1879 32.5014C19.3295 32.5022 19.4655 32.4466 19.566 32.347L24.8908 27.0221C25.0996 26.8133 25.0996 26.4748 24.8908 26.266C24.682 26.0572 24.3435 26.0572 24.1347 26.266L18.8099 31.5908C18.709 31.6908 18.6523 31.8269 18.6523 31.9689C18.6523 32.1109 18.709 32.247 18.8099 32.347C18.9103 32.4466 19.0464 32.5022 19.1879 32.5014V32.5014Z" fill="#DC7000"/>
<path d="M46.8771 16.5273H33.0325C32.1502 16.5273 31.435 17.2425 31.435 18.1248V23.9821H19.1878C17.7174 23.9821 16.5254 25.1742 16.5254 26.6446V40.4892C16.5254 41.9596 17.7174 43.1516 19.1878 43.1516H25.0452V45.2816H23.4477C22.5655 45.2816 21.8502 45.9968 21.8502 46.879C21.8502 47.7613 22.5655 48.4765 23.4477 48.4765H46.8771C47.7593 48.4765 48.4745 47.7613 48.4745 46.879V18.1248C48.4745 17.2425 47.7593 16.5273 46.8771 16.5273ZM19.1878 25.0471H38.3573C39.2396 25.0471 39.9548 25.7623 39.9548 26.6446V39.4242H17.5904V26.6446C17.5904 25.7623 18.3056 25.0471 19.1878 25.0471ZM17.5904 40.4892H39.9548C39.9548 41.3715 39.2396 42.0867 38.3573 42.0867H19.1878C18.3056 42.0867 17.5904 41.3715 17.5904 40.4892ZM26.1101 43.1516H31.435V45.2816H26.1101V43.1516ZM33.0325 47.4115H23.4477C23.1536 47.4115 22.9152 47.1731 22.9152 46.879C22.9152 46.585 23.1536 46.3466 23.4477 46.3466H34.0974C34.3915 46.3466 34.6299 46.585 34.6299 46.879C34.6299 47.1731 34.3915 47.4115 34.0974 47.4115H33.0325ZM47.4096 46.879C47.4096 47.1731 47.1712 47.4115 46.8771 47.4115H35.599C35.7716 46.9233 35.6969 46.3818 35.3986 45.9586C35.1002 45.5354 34.6152 45.283 34.0974 45.2816H32.5V43.1516H38.3573C39.8277 43.1516 41.0197 41.9596 41.0197 40.4892V26.6446C41.0197 25.1742 39.8277 23.9821 38.3573 23.9821H32.5V18.1248C32.5 17.8307 32.7384 17.5923 33.0325 17.5923H46.8771C47.1712 17.5923 47.4096 17.8307 47.4096 18.1248V46.879Z" fill="#DC7000"/>
<path d="M45.2791 19.1914H34.6294C34.0413 19.1914 33.5645 19.6682 33.5645 20.2564V21.3213C33.5645 21.9095 34.0413 22.3863 34.6294 22.3863H45.2791C45.8673 22.3863 46.3441 21.9095 46.3441 21.3213V20.2564C46.3441 19.6682 45.8673 19.1914 45.2791 19.1914ZM34.6294 21.3213V20.2564H45.2791V21.3213H34.6294Z" fill="#DC7000"/>
<path d="M44.2146 27.1754C45.0969 27.1754 45.8121 26.4602 45.8121 25.5779C45.8121 24.6957 45.0969 23.9805 44.2146 23.9805C43.3324 23.9805 42.6172 24.6957 42.6172 25.5779C42.6172 26.4602 43.3324 27.1754 44.2146 27.1754ZM44.2146 25.0454C44.5087 25.0454 44.7471 25.2838 44.7471 25.5779C44.7471 25.872 44.5087 26.1104 44.2146 26.1104C43.9206 26.1104 43.6822 25.872 43.6822 25.5779C43.6822 25.2838 43.9206 25.0454 44.2146 25.0454Z" fill="#DC7000"/>
<path d="M45.8121 29.8396C45.8121 28.9574 45.0969 28.2422 44.2146 28.2422C43.3324 28.2422 42.6172 28.9574 42.6172 29.8396C42.6172 30.7219 43.3324 31.4371 44.2146 31.4371C45.0969 31.4371 45.8121 30.7219 45.8121 29.8396ZM44.2146 30.3721C43.9206 30.3721 43.6822 30.1337 43.6822 29.8396C43.6822 29.5456 43.9206 29.3072 44.2146 29.3072C44.5087 29.3072 44.7471 29.5456 44.7471 29.8396C44.7471 30.1337 44.5087 30.3721 44.2146 30.3721Z" fill="#DC7000"/>
<path d="M37.2923 44.2148C36.9982 44.2148 36.7598 44.4532 36.7598 44.7473V45.8123C36.7598 46.1064 36.9982 46.3448 37.2923 46.3448C37.5863 46.3448 37.8247 46.1064 37.8247 45.8123V44.7473C37.8247 44.4532 37.5863 44.2148 37.2923 44.2148Z" fill="#DC7000"/>
<path d="M39.4231 44.2148C39.129 44.2148 38.8906 44.4532 38.8906 44.7473V45.8123C38.8906 46.1064 39.129 46.3448 39.4231 46.3448C39.7172 46.3448 39.9556 46.1064 39.9556 45.8123V44.7473C39.9556 44.4532 39.7172 44.2148 39.4231 44.2148Z" fill="#DC7000"/>
<path d="M41.552 44.2148C41.2579 44.2148 41.0195 44.4532 41.0195 44.7473V45.8123C41.0195 46.1064 41.2579 46.3448 41.552 46.3448C41.8461 46.3448 42.0845 46.1064 42.0845 45.8123V44.7473C42.0845 44.4532 41.8461 44.2148 41.552 44.2148Z" fill="#DC7000"/>
<path d="M43.6829 44.2148C43.3888 44.2148 43.1504 44.4532 43.1504 44.7473V45.8123C43.1504 46.1064 43.3888 46.3448 43.6829 46.3448C43.977 46.3448 44.2154 46.1064 44.2154 45.8123V44.7473C44.2154 44.4532 43.977 44.2148 43.6829 44.2148Z" fill="#DC7000"/>
<path d="M45.8118 44.2148C45.5177 44.2148 45.2793 44.4532 45.2793 44.7473V45.8123C45.2793 46.1064 45.5177 46.3448 45.8118 46.3448C46.1059 46.3448 46.3443 46.1064 46.3443 45.8123V44.7473C46.3443 44.4532 46.1059 44.2148 45.8118 44.2148Z" fill="#DC7000"/>
</g>
<defs>
<clipPath id="clip0_270_226">
<rect width="31.9492" height="31.9492" fill="white" transform="translate(16.5254 16.5273)"/>
</clipPath>
</defs>
</svg>
