<svg width="65" height="65" viewBox="0 0 65 65" fill="none" xmlns="http://www.w3.org/2000/svg">
<circle cx="32.5" cy="32.5" r="32.5" fill="white"/>
<g clip-path="url(#clip0_270_268)">
<path d="M34.5666 40.9062C32.8806 41.4688 31.0208 41.4686 29.33 40.9059C28.8562 40.7482 28.3447 41.0044 28.1871 41.478C28.0295 41.9515 28.2856 42.4633 28.7592 42.6209C29.7889 42.9636 30.8698 43.1349 31.9504 43.1349C33.0311 43.1349 34.1115 42.9634 35.1387 42.6207C35.6121 42.4627 35.8679 41.9508 35.7099 41.4773C35.5519 41.0039 35.0401 40.7483 34.5666 40.9062V40.9062Z" fill="#DC7000"/>
<path d="M42.4763 23.5332C42.0917 20.7744 39.7227 18.5969 36.7887 18.5969H35.7564V18.5326C35.7564 18.0335 35.3517 17.6289 34.8526 17.6289H29.0446C28.5455 17.6289 28.1409 18.0335 28.1409 18.5326V18.5969H27.1086C24.1992 18.5969 21.827 20.744 21.4236 23.5326C19.7295 23.9181 18.4609 25.4355 18.4609 27.2446V34.9886C18.4609 37.4652 20.4783 38.4746 21.3946 38.6924C21.8084 44.2677 26.4899 48.4764 31.9486 48.4764C37.5154 48.4764 42.092 44.1562 42.5023 38.6926C44.8775 38.1287 45.4363 35.9737 45.4363 34.9887V27.2446C45.4364 25.4364 44.169 23.9197 42.4763 23.5332V23.5332ZM35.7564 20.4043H36.7886C39.3457 20.4043 40.402 22.495 40.6216 23.4369H35.7564V20.4043ZM29.9484 19.4364H33.9489V23.4369H29.9484V19.4364ZM27.1086 20.4043H28.1409V23.4369H23.2793C23.8655 20.9814 26.09 20.4043 27.1086 20.4043V20.4043ZM31.9486 46.6689C27.4881 46.6689 23.6752 43.2898 23.2183 38.7963H27.6749C28.7839 38.7963 29.869 38.3469 30.6519 37.5634C30.6566 37.5588 30.6612 37.5541 30.6657 37.5493C31.0057 37.2167 31.4722 37.0264 31.9486 37.0264C32.4252 37.0264 32.8916 37.2168 33.2316 37.5494C33.2361 37.5541 33.2407 37.5588 33.2454 37.5634C34.0283 38.3469 35.1134 38.7963 36.2224 38.7963H40.6786C40.2248 43.2127 36.4828 46.6689 31.9486 46.6689V46.6689ZM43.6289 34.9887C43.6289 36.1071 42.7173 36.9889 41.6286 36.9889H36.2224C35.5963 36.9889 34.9838 36.7382 34.5386 36.3004C34.5337 36.2952 34.5288 36.2902 34.5238 36.2851C33.8462 35.6076 32.9077 35.2189 31.9487 35.2189C30.9898 35.2189 30.0512 35.6076 29.3736 36.2851C29.3686 36.2901 29.3636 36.2952 29.3588 36.3003C28.9135 36.7382 28.301 36.9889 27.6749 36.9889H22.2686C21.1834 36.9889 20.2683 36.1109 20.2683 34.9887V27.2446C20.2683 26.1417 21.1657 25.2444 22.2686 25.2444H41.6286C42.7316 25.2444 43.6288 26.1418 43.6288 27.2446V34.9887H43.6289Z" fill="#DC7000"/>
</g>
<defs>
<clipPath id="clip0_270_268">
<rect width="30.8475" height="30.8475" fill="white" transform="translate(16.5254 17.6289)"/>
</clipPath>
</defs>
</svg>
