<svg width="58" height="17" viewBox="0 0 58 17" fill="none" xmlns="http://www.w3.org/2000/svg">
<rect x="0.03125" width="57.8121" height="16.6309" rx="8.31544" fill="#E9E9E9"/>
<path d="M3.19727 4.26507V9.81466C3.21517 11.0305 3.88191 13.4622 6.40561 13.4622C8.67788 13.4622 9.40087 11.5408 9.51568 10.293C9.53932 10.0361 9.53274 9.78135 9.53274 9.52342C9.53274 8.08982 9.53274 3.09201 9.53274 2.375" stroke="#4F4F4F" stroke-width="2"/>
<path d="M26.1641 13.4609V13.4609C26.1641 10.9876 28.8801 8.78839 29.2776 6.34723C29.3129 6.13063 29.3318 5.89764 29.3318 5.64717C29.3318 3.45948 27.9202 2.64372 26.8505 2.43338C26.8468 2.43265 26.1678 2.3738 26.1641 2.3738V2.3738" stroke="#4F4F4F" stroke-width="2"/>
<path d="M12.7012 6.55268C12.7191 5.42367 13.3858 3.16564 15.9095 3.16564C18.145 3.16564 18.8809 4.89243 19.0135 6.05169C19.0451 6.32767 19.0366 6.6054 19.0366 6.88318C19.0366 8.28826 19.0366 12.8048 19.0366 13.4609" stroke="#4F4F4F" stroke-width="2"/>
<path d="M22.9961 7.91797V13.4616" stroke="#4F4F4F" stroke-width="2"/>
<path d="M37.2503 4.75C38.8625 4.75 42.002 5.58996 42.002 8.70973" stroke="#4F4F4F" stroke-width="2"/>
<path d="M37.2503 13.4609C38.8625 13.4609 42.002 12.453 42.002 8.70926" stroke="#4F4F4F" stroke-width="2"/>
<path d="M32.5 7.91797V11.0858C32.5 12.3979 33.5637 13.4616 34.8758 13.4616V13.4616" stroke="#4F4F4F" stroke-width="2"/>
<path d="M44.3789 13.4609V13.4609C44.3789 12.2243 45.7369 11.1247 45.9357 9.90408C45.9533 9.79578 45.9628 9.67929 45.9628 9.55406C45.9628 8.46021 45.257 8.05233 44.7221 7.94716C44.7203 7.94679 44.3808 7.91737 44.3789 7.91737V7.91737" stroke="#4F4F4F" stroke-width="2"/>
<path d="M44.3789 11.0859L48.3386 13.4618" stroke="#4F4F4F" stroke-width="2"/>
<path d="M54.6736 4.75H51.5302C50.9941 4.76974 49.9219 5.05702 49.9219 6.04825C49.9219 7.03949 49.9219 9.81948 49.9219 11.0856" stroke="#4F4F4F" stroke-width="2"/>
<path d="M54.6736 13.4609H51.5302C50.9941 13.4387 49.9219 13.1155 49.9219 12.0004C49.9219 10.8853 49.9219 7.75777 49.9219 6.33342" stroke="#4F4F4F" stroke-width="2"/>
<path d="M49.9219 8.71094H53.8816" stroke="#4F4F4F" stroke-width="2"/>
</svg>
